# xmcd CD Database Entry
#
# Track frame offsets:
# 150
# 16982
# 30062
# 42417
# 50880
# 80505
# 104537
# 115607
# 136430
# 150765
#
# Disc length: 2244 seconds
#
# Revision: 11
# Processed by: cddbd v1.4PL0 Copyright (c) Steve Scherf et al.
# Submitted via: tcd 2.0b
#
DISCID=7108c20a
DTITLE=Various Artist - Microsoft Money 98's "Sounds of Money"
DYEAR=1900
DGENRE=
TTITLE0=For The Love Of Money
TTITLE1=Lawyers, Guns and Money
TTITLE2=Money Tree Blues
TTITLE3=The Money Song
TTITLE4=Money (That's what I Want)
TTITLE5=She Works Hard For Her Money
TTITLE6=I Need Some Money
TTITLE7=Money Tight
TTITLE8=Money Blues
TTITLE9=Money
EXTD=
EXTT0=The O'Jays\n
EXTT1=Rick Derringer\n
EXTT2=Willie Dixon and Big Three Trio\n
EXTT3=From Cabaret\nJoel Greay and Cabaret Girls\n
EXTT4=Flying Lizards\n
EXTT5=Donna Summer\n
EXTT6=Jonh Lee Hooker\n
EXTT7=Earth, Wind and Fire\n
EXTT8=Bessie Smith\n
EXTT9=The Charlie Daniels Band\n
PLAYORDER=
